<svg width="144" height="228" viewBox="0 0 144 228" xmlns="http://www.w3.org/2000/svg"><defs><linearGradient x1="0%" y1="0%" x2="102%" y2="101%" id="a"><stop stop-color="#3023AE" offset="0%"/><stop stop-color="#C96DD8" offset="100%"/></linearGradient></defs><g fill="none" fill-rule="evenodd"><path fill="#FFF" d="M0 0h144v228H0z"/><g fill="#000"><path d="M103 214.597c0 .5.4.952.9.952h11.868c9.663 0 17.574-7.862 17.574-17.576 0-9.613-7.91-17.474-17.574-17.474H103.9c-.5 0-.9.45-.9.95v33.147zm6.46-5.157v-22.882h5.707c6.51 0 11.266 4.907 11.266 11.416 0 6.56-4.757 11.466-11.266 11.466h-5.708zM86 214.597c0 .5.45.952.95.952h4.658c.5 0 .95-.452.95-.953V181.45c0-.5-.45-.95-.95-.95H86.95c-.5 0-.95.45-.95.95v33.147zM51 214.597c0 .5.4.952.95.952h4.608c.5 0 .95-.452.95-.953V201.83h5.56l6.658 13.268c.1.2.35.45.8.45h5.258c.852 0 1.202-.8.852-1.45l-6.86-12.72c4.356-1.75 7.41-5.507 7.41-10.113 0-5.958-4.906-10.765-10.915-10.765H51.95a.95.95 0 0 0-.95.95v33.147zm6.56-18.125v-9.964h8.16c2.654 0 4.957 2.203 4.957 4.857 0 2.804-2.303 5.107-4.957 5.107h-8.16zM12 198.075C12 208.09 20.01 216 29.975 216c7.26 0 12.417-3.255 12.417-3.255.2-.15.4-.4.4-.8v-12.818c0-.5-.4-.952-.9-.952h-9.614c-.55 0-.95.4-.95.952v3.955c0 .5.4.9.95.9h4.006v4.257c-1.002.4-3.155 1.25-5.96 1.25-6.307 0-11.264-5.256-11.264-11.465 0-6.26 4.957-11.616 11.215-11.616 2.754 0 5.408 1 7.56 2.903.452.4.902.4 1.303 0l3.104-3.255c.4-.4.35-1-.05-1.402-3.405-2.904-7.71-4.656-12.217-4.656C20.01 180 12 188.06 12 198.075z"/></g><path d="M0 0h144v168H0V0zm0 168h36V72l96 96h12V0h-36v90L12 0H0v168z" fill="url(#a)"/></g></svg>