<svg width="155" height="42" viewBox="0 0 155 42" xmlns="http://www.w3.org/2000/svg"><defs><linearGradient x1="0%" y1="0%" x2="102%" y2="101%" id="a"><stop stop-color="#3023AE" offset="0%"/><stop stop-color="#C96DD8" offset="100%"/></linearGradient></defs><g fill="none" fill-rule="evenodd"><path fill="#FFF" d="M0 0h155v42H0z"/><path d="M42 21.063C42 29.408 48.676 36 56.98 36c6.05 0 10.347-2.712 10.347-2.712a.802.802 0 0 0 .334-.668V21.94c0-.418-.333-.794-.75-.794h-8.012a.767.767 0 0 0-.792.793v3.295c0 .417.333.75.792.75h3.338v3.548c-.834.333-2.628 1.043-4.965 1.043-5.256 0-9.387-4.38-9.387-9.555 0-5.215 4.13-9.68 9.346-9.68 2.294 0 4.506.835 6.3 2.42.375.335.75.335 1.085 0l2.587-2.71c.333-.335.292-.836-.042-1.17C64.323 7.46 60.734 6 56.98 6 48.675 6 42 12.718 42 21.063zm34.515 13.77c0 .416.334.79.793.79h3.84a.82.82 0 0 0 .792-.79v-10.64h4.63l5.55 11.056c.084.166.292.374.668.374h4.38c.71 0 1.002-.667.71-1.21l-5.716-10.598c3.63-1.46 6.175-4.59 6.175-8.428 0-4.965-4.09-8.97-9.096-8.97H77.31a.792.792 0 0 0-.793.792v27.622zm5.466-15.106v-8.303h6.802c2.212 0 4.13 1.836 4.13 4.047 0 2.338-1.918 4.257-4.13 4.257h-6.8zm25.045 15.105a.82.82 0 0 0 .793.792h3.88a.82.82 0 0 0 .793-.792V7.21a.82.82 0 0 0-.792-.793h-3.88a.82.82 0 0 0-.793.793v27.622zm15.78 0c0 .417.335.792.752.792h9.89c8.052 0 14.644-6.55 14.644-14.645 0-8.012-6.59-14.563-14.644-14.563h-9.89c-.416 0-.75.376-.75.793v27.622zm5.384-4.298V11.466h4.755c5.424 0 9.388 4.09 9.388 9.513 0 5.465-3.964 9.554-9.388 9.554h-4.756z" fill="#000"/><path d="M0 0h36v42H0V0zm0 42h9V18l24 24h3V0h-9v22.5L3 0H0v42z" fill="url(#a)"/></g></svg>