<?xml version="1.0" encoding="UTF-8" standalone="no"?>
<svg width="155px" height="42px" viewBox="0 0 155 42" version="1.1" xmlns="http://www.w3.org/2000/svg" xmlns:xlink="http://www.w3.org/1999/xlink">
    <defs>
        <linearGradient x1="0%" y1="0%" x2="101.999998%" y2="100.999999%" id="linearGradient-1">
            <stop stop-color="#3023AE" offset="0%"></stop>
            <stop stop-color="#C96DD8" offset="100%"></stop>
        </linearGradient>
    </defs>
    <g id="Final" stroke="none" stroke-width="1" fill="none" fill-rule="evenodd">
        <g id="Lockup-Horizontal">
            <g id="logo-nthgrid-horizontal">
                <rect id="Background" fill="#FFFFFF" x="0" y="0" width="155" height="42"></rect>
                <path d="M42,21.0625869 C42,29.4075104 48.6759388,36 56.9791377,36 C63.0292072,36 67.3268428,33.2878999 67.3268428,33.2878999 C67.4937413,33.162726 67.6606398,32.9541029 67.6606398,32.620306 L67.6606398,21.9388039 C67.6606398,21.5215577 67.3268428,21.1460362 66.9095967,21.1460362 L58.8984701,21.1460362 C58.4394993,21.1460362 58.1057024,21.4798331 58.1057024,21.9388039 L58.1057024,25.2350487 C58.1057024,25.6522949 58.4394993,25.9860918 58.8984701,25.9860918 L62.2364395,25.9860918 L62.2364395,29.5326843 C61.4019471,29.8664812 59.6077886,30.5757997 57.27121,30.5757997 C52.0139082,30.5757997 47.8831711,26.1947149 47.8831711,21.0208623 C47.8831711,15.8052851 52.0139082,11.340751 57.2294854,11.340751 C59.5243394,11.340751 61.7357441,12.1752434 63.5299026,13.7607789 C63.9054242,14.0945758 64.2809458,14.0945758 64.6147427,13.7607789 L67.201669,11.0486787 C67.5354659,10.7148818 67.4937413,10.2141864 67.1599444,9.88038943 C64.3226704,7.46036161 60.7343533,6 56.9791377,6 C48.6759388,6 42,12.7176634 42,21.0625869 L42,21.0625869 Z M76.5153293,34.8317107 C76.5153293,35.2489569 76.8491262,35.6244784 77.308097,35.6244784 L81.1467618,35.6244784 C81.564008,35.6244784 81.9395295,35.2489569 81.9395295,34.8317107 L81.9395295,24.1919332 L86.5709621,24.1919332 L92.1203362,35.2489569 C92.2037855,35.4158554 92.4124085,35.6244784 92.7879301,35.6244784 L97.1690149,35.6244784 C97.8783334,35.6244784 98.1704058,34.9568846 97.8783334,34.4144645 L92.1620608,23.8164117 C95.7921026,22.3560501 98.3373042,19.2267038 98.3373042,15.3880389 C98.3373042,10.4228095 94.2482917,6.41724618 89.2413376,6.41724618 L77.308097,6.41724618 C76.8491262,6.41724618 76.5153293,6.79276773 76.5153293,7.21001391 L76.5153293,34.8317107 Z M81.9812542,19.7273992 L81.9812542,11.4242003 L88.7823668,11.4242003 C90.9937715,11.4242003 92.9131039,13.2600834 92.9131039,15.4714882 C92.9131039,17.8080668 90.9937715,19.7273992 88.7823668,19.7273992 L81.9812542,19.7273992 Z M107.025095,34.8317107 C107.025095,35.2489569 107.400617,35.6244784 107.817863,35.6244784 L111.698252,35.6244784 C112.115499,35.6244784 112.49102,35.2489569 112.49102,34.8317107 L112.49102,7.21001391 C112.49102,6.79276773 112.115499,6.41724618 111.698252,6.41724618 L107.817863,6.41724618 C107.400617,6.41724618 107.025095,6.79276773 107.025095,7.21001391 L107.025095,34.8317107 Z M122.806071,34.8317107 C122.806071,35.2489569 123.139868,35.6244784 123.557114,35.6244784 L133.445849,35.6244784 C141.4987,35.6244784 148.091189,29.0737135 148.091189,20.9791377 C148.091189,12.9680111 141.4987,6.41724618 133.445849,6.41724618 L123.557114,6.41724618 C123.139868,6.41724618 122.806071,6.79276773 122.806071,7.21001391 L122.806071,34.8317107 Z M128.188547,30.5340751 L128.188547,11.4659249 L132.945153,11.4659249 C138.369354,11.4659249 142.333192,15.5549374 142.333192,20.9791377 C142.333192,26.4450626 138.369354,30.5340751 132.945153,30.5340751 L128.188547,30.5340751 Z" id="GRID" fill="#000000"></path>
                <g id="Logo" fill="url(#linearGradient-1)">
                    <path d="M0,0 L36,0 L36,42 L0,42 L0,0 Z M0,42 L9,42 L9,18 L33,42 L36,42 L36,0 L27,0 L27,22.5 L3,0 L0,0 L0,42 Z" id="Background"></path>
                </g>
            </g>
        </g>
    </g>
</svg>