<?xml version="1.0" encoding="utf-8"?>
<!-- Generator: Adobe Illustrator 19.0.0, SVG Export Plug-In . SVG Version: 6.00 Build 0)  -->
<svg version="1.1" id="Layer_1" xmlns="http://www.w3.org/2000/svg" xmlns:xlink="http://www.w3.org/1999/xlink" x="0px" y="0px"
	 viewBox="0 0 48 48" style="enable-background:new 0 0 48 48;" xml:space="preserve">
<style type="text/css">
	.st0{fill:#006EB8;}
</style>
<path class="st0" d="M44.5,11.3c4.3-11-4-10.3-4-10.3c-5.3,0-11.9,4.8-11.9,4.8s-7.9-2.1-15.8,2.7C4.2,14,4.4,23.7,4.4,23.7
	c7-10,16.8-14.1,16.8-14.1v0.7C6.8,20.1,3.4,34.5,2.6,37.5C1.7,40.4,2.3,47,8.3,47c6.1,0,12.2-4.9,12.2-4.9s1.3,0.3,4.9,0.3
	C40.6,42.4,44.2,29,44.2,29H30.8c0,0-0.9,4.4-5.8,4.4c-6.6,0-6.3-6.9-6.3-6.9h25.7C45.6,8.7,30.1,6.1,30.1,6.1s5.5-3.9,10.2-3.9
	c7.5,0,4,8.8,4,8.8L44.5,11.3z M19.8,41.9c0,0-9.3,5.6-13.4,1.7c-2.2-3.9,1.4-9.4,1.4-9.4S10.8,39.9,19.8,41.9z M30.9,20.4H18.7
	c0,0-0.2-5.9,6.3-5.9C31.2,14.5,30.9,20.4,30.9,20.4z"/>
</svg>
