<?xml version="1.0" encoding="UTF-8" standalone="no"?>
<svg width="144px" height="228px" viewBox="0 0 144 228" version="1.1" xmlns="http://www.w3.org/2000/svg" xmlns:xlink="http://www.w3.org/1999/xlink">
    <defs>
        <linearGradient x1="0%" y1="0%" x2="101.999998%" y2="100.999999%" id="linearGradient-1">
            <stop stop-color="#3023AE" offset="0%"></stop>
            <stop stop-color="#C96DD8" offset="100%"></stop>
        </linearGradient>
    </defs>
    <g id="Final" stroke="none" stroke-width="1" fill="none" fill-rule="evenodd">
        <g id="logo-nthgrid-vertical">
            <g id="Lockup-Vertical">
                <rect id="Background" fill="#FFFFFF" x="0" y="0" width="144" height="228"></rect>
                <g id="Grid" transform="translate(12.000000, 180.000000)" fill="#000000">
                    <path d="M91,34.5973574 C91,35.0980529 91.4005563,35.5486787 91.9012517,35.5486787 L103.767733,35.5486787 C113.431154,35.5486787 121.342142,27.6877608 121.342142,17.9742698 C121.342142,8.36091794 113.431154,0.5 103.767733,0.5 L91.9012517,0.5 C91.4005563,0.5 91,0.950625869 91,1.45132128 L91,34.5973574 Z M97.4589708,29.4401947 L97.4589708,6.55841446 L103.166898,6.55841446 C109.675939,6.55841446 114.432545,11.4652295 114.432545,17.9742698 C114.432545,24.5333797 109.675939,29.4401947 103.166898,29.4401947 L97.4589708,29.4401947 Z" id="D"></path>
                    <path d="M74,34.5973574 C74,35.0980529 74.4506259,35.5486787 74.9513213,35.5486787 L79.6077886,35.5486787 C80.108484,35.5486787 80.5591099,35.0980529 80.5591099,34.5973574 L80.5591099,1.45132128 C80.5591099,0.950625869 80.108484,0.5 79.6077886,0.5 L74.9513213,0.5 C74.4506259,0.5 74,0.950625869 74,1.45132128 L74,34.5973574 Z" id="I"></path>
                    <path d="M39,34.5973574 C39,35.0980529 39.4005563,35.5486787 39.9513213,35.5486787 L44.5577191,35.5486787 C45.0584145,35.5486787 45.5090403,35.0980529 45.5090403,34.5973574 L45.5090403,21.8296245 L51.0667594,21.8296245 L57.7260083,35.0980529 C57.8261474,35.298331 58.0764951,35.5486787 58.527121,35.5486787 L63.7844228,35.5486787 C64.635605,35.5486787 64.9860918,34.7475661 64.635605,34.096662 L57.7760779,21.3789986 C62.132128,19.6265647 65.18637,15.8713491 65.18637,11.2649513 C65.18637,5.30667594 60.2795549,0.5 54.27121,0.5 L39.9513213,0.5 C39.4005563,0.5 39,0.950625869 39,1.45132128 L39,34.5973574 Z M45.5591099,16.4721836 L45.5591099,6.50834492 L53.7204451,6.50834492 C56.3741307,6.50834492 58.6773296,8.71140473 58.6773296,11.3650904 C58.6773296,14.1689847 56.3741307,16.4721836 53.7204451,16.4721836 L45.5591099,16.4721836 Z" id="R"></path>
                    <path d="M0,18.0751043 C0,28.0890125 8.01112656,36 17.9749652,36 C25.2350487,36 30.3922114,32.7454798 30.3922114,32.7454798 C30.5924896,32.5952712 30.7927677,32.3449235 30.7927677,31.9443672 L30.7927677,19.1265647 C30.7927677,18.6258693 30.3922114,18.1752434 29.891516,18.1752434 L20.2781641,18.1752434 C19.7273992,18.1752434 19.3268428,18.5757997 19.3268428,19.1265647 L19.3268428,23.0820584 C19.3268428,23.5827538 19.7273992,23.9833102 20.2781641,23.9833102 L24.2837274,23.9833102 L24.2837274,28.2392211 C23.2823366,28.6397775 21.1293463,29.4909597 18.325452,29.4909597 C12.0166898,29.4909597 7.05980529,24.2336579 7.05980529,18.0250348 C7.05980529,11.7663421 12.0166898,6.40890125 18.2753825,6.40890125 C21.0292072,6.40890125 23.6828929,7.41029207 25.8358832,9.31293463 C26.286509,9.71349096 26.7371349,9.71349096 27.1376912,9.31293463 L30.2420028,6.05841446 C30.6425591,5.65785814 30.5924896,5.05702364 30.1919332,4.65646732 C26.7872045,1.75243394 22.4812239,0 17.9749652,0 C8.01112656,0 0,8.06119611 0,18.0751043 L0,18.0751043 Z" id="G"></path>
                </g>
                <g id="Logo" fill="url(#linearGradient-1)">
                    <path d="M0,0 L144,0 L144,168 L0,168 L0,0 Z M0,168 L36,168 L36,72 L132,168 L144,168 L144,0 L108,0 L108,90 L12,0 L0,0 L0,168 Z" id="Background"></path>
                </g>
            </g>
        </g>
    </g>
</svg>