<?xml version="1.0" encoding="utf-8"?>
<!-- Generator: Adobe Illustrator 19.0.0, SVG Export Plug-In . SVG Version: 6.00 Build 0)  -->
<svg version="1.1" id="Layer_1" xmlns="http://www.w3.org/2000/svg" xmlns:xlink="http://www.w3.org/1999/xlink" x="0px" y="0px"
	 viewBox="0 0 48 48" style="enable-background:new 0 0 48 48;" xml:space="preserve">
<style type="text/css">
	.st0{fill:#E53029;}
	.st1{fill:#FDD900;}
	.st2{fill:#66B44B;}
	.st3{fill:#61AB48;}
	.st4{fill:#FFFFFF;}
	.st5{fill:url(#SVGID_1_);}
	.st6{fill:#F0CE00;}
	.st7{fill:#D92F27;}
</style>
<g>
	<path class="st0" d="M23.9,0c0,0,14.1-0.6,21.6,13.5c-3.9,0-22.8,0-22.8,0s-4.3-0.1-8,5.1c-1.1,2.2-2.2,4.4-0.9,8.9
		C12,24.4,4.1,10.6,4.1,10.6S9.7,0.6,23.9,0z"/>
	<path class="st1" d="M44.8,36c0,0-6.5,12.5-22.5,11.9c2-3.4,11.4-19.7,11.4-19.7s2.3-3.7-0.4-9.4c-1.4-2-2.8-4.1-7.2-5.2
		c3.6,0,19.5,0,19.5,0S51.4,23.4,44.8,36z"/>
	<path class="st2" d="M3.2,36.1c0,0-7.6-11.9,0.9-25.4c2,3.4,11.4,19.7,11.4,19.7s2,3.8,8.4,4.4c2.4-0.2,4.9-0.3,8.2-3.6
		c-1.8,3.1-9.7,16.8-9.7,16.8S10.8,48.1,3.2,36.1z"/>
	<path class="st3" d="M22.3,48l3.2-13.4c0,0,3.5-0.3,6.5-3.5C30.1,34.3,22.3,48,22.3,48z"/>
	<circle class="st4" cx="23.9" cy="24.1" r="10.7"/>
	<linearGradient id="SVGID_1_" gradientUnits="userSpaceOnUse" x1="23.8787" y1="15.3938" x2="23.8787" y2="32.4996">
		<stop  offset="0" style="stop-color:#96C1E9"/>
		<stop  offset="1" style="stop-color:#116CB3"/>
	</linearGradient>
	<circle class="st5" cx="23.9" cy="24.1" r="8.9"/>
	<path class="st6" d="M45.5,13.5l-13.2,3.9c0,0-2-2.9-6.3-3.9C29.7,13.5,45.5,13.5,45.5,13.5z"/>
	<path class="st7" d="M13.6,27c-1.9-3.2-9.5-16.4-9.5-16.4l9.8,9.7c0,0-1,2.1-0.6,5L13.6,27z"/>
</g>
</svg>
